<svg xmlns="http://www.w3.org/2000/svg" width="1200" height="760" viewBox="0 0 1200 760"><rect width="100%" height="100%" fill="white"/><style>text{font-family:Arial,sans-serif;fill:#111}.t{font-size:26px;font-weight:700}.st{font-size:17px;font-weight:700}.ax{font-size:13px}.sm{font-size:12px}.grid{stroke:#ddd;stroke-width:1}.axis{stroke:#111;stroke-width:1.5}.line{fill:none;stroke:#111;stroke-width:2}.pt{fill:white;stroke:#111;stroke-width:2}</style><text class="t" x="50" y="42">Fig. 5. Metric-specific stability across temporal scales</text><text class="st" x="90" y="98">SNR CV (%)</text><line class="axis" x1="90" y1="330" x2="520" y2="330"/><line class="axis" x1="90" y1="110" x2="90" y2="330"/><line class="grid" x1="90" y1="330" x2="520" y2="330"/><text class="sm" text-anchor="end" x="82" y="334">0.00</text><line class="grid" x1="90" y1="275" x2="520" y2="275"/><text class="sm" text-anchor="end" x="82" y="279">1.46</text><line class="grid" x1="90" y1="220" x2="520" y2="220"/><text class="sm" text-anchor="end" x="82" y="224">2.92</text><line class="grid" x1="90" y1="165" x2="520" y2="165"/><text class="sm" text-anchor="end" x="82" y="169">4.38</text><line class="grid" x1="90" y1="110" x2="520" y2="110"/><text class="sm" text-anchor="end" x="82" y="114">5.84</text><polyline class="line" points="90,202.16226402165347 305,213.05409942782742 520,226.3956556000959"/><circle class="pt" cx="90" cy="202.16226402165347" r="5"/><text class="sm" x="97" y="195.16226402165347">E1</text><circle class="pt" cx="305" cy="213.05409942782742" r="5"/><text class="sm" x="312" y="206.05409942782742">E1</text><circle class="pt" cx="520" cy="226.3956556000959" r="5"/><text class="sm" x="527" y="219.3956556000959">E1</text><polyline class="line" points="90,187.3508753897283 305,193.9085894405043 520,200.08942337341963"/><circle class="pt" cx="90" cy="187.3508753897283" r="5"/><text class="sm" x="97" y="180.3508753897283">E2</text><circle class="pt" cx="305" cy="193.9085894405043" r="5"/><text class="sm" x="312" y="186.9085894405043">E2</text><circle class="pt" cx="520" cy="200.08942337341963" r="5"/><text class="sm" x="527" y="193.08942337341963">E2</text><polyline class="line" points="90,250.968239284613 305,253.34258402713536 520,254.774728475006"/><circle class="pt" cx="90" cy="250.968239284613" r="5"/><text class="sm" x="97" y="243.968239284613">E3</text><circle class="pt" cx="305" cy="253.34258402713536" r="5"/><text class="sm" x="312" y="246.34258402713536">E3</text><circle class="pt" cx="520" cy="254.774728475006" r="5"/><text class="sm" x="527" y="247.774728475006">E3</text><polyline class="line" points="90,138.69565217391303 305,138.73334018569906 520,139.03484427998762"/><circle class="pt" cx="90" cy="138.69565217391303" r="5"/><text class="sm" x="97" y="131.69565217391303">E4</text><circle class="pt" cx="305" cy="138.73334018569906" r="5"/><text class="sm" x="312" y="131.73334018569906">E4</text><circle class="pt" cx="520" cy="139.03484427998762" r="5"/><text class="sm" x="527" y="132.03484427998762">E4</text><polyline class="line" points="90,210.98125877959365 305,226.5087196354541 520,234.87545825196148"/><circle class="pt" cx="90" cy="210.98125877959365" r="5"/><text class="sm" x="97" y="203.98125877959365">E5</text><circle class="pt" cx="305" cy="226.5087196354541" r="5"/><text class="sm" x="312" y="219.5087196354541">E5</text><circle class="pt" cx="520" cy="234.87545825196148" r="5"/><text class="sm" x="527" y="227.87545825196148">E5</text><text class="ax" text-anchor="middle" x="90" y="352">15</text><text class="ax" text-anchor="middle" x="305" y="352">30</text><text class="ax" text-anchor="middle" x="520" y="352">60</text><text class="st" x="680" y="98">MCS CV (%)</text><line class="axis" x1="680" y1="330" x2="1110" y2="330"/><line class="axis" x1="680" y1="110" x2="680" y2="330"/><line class="grid" x1="680" y1="330" x2="1110" y2="330"/><text class="sm" text-anchor="end" x="672" y="334">0.00</text><line class="grid" x1="680" y1="275" x2="1110" y2="275"/><text class="sm" text-anchor="end" x="672" y="279">0.34</text><line class="grid" x1="680" y1="220" x2="1110" y2="220"/><text class="sm" text-anchor="end" x="672" y="224">0.68</text><line class="grid" x1="680" y1="165" x2="1110" y2="165"/><text class="sm" text-anchor="end" x="672" y="169">1.03</text><line class="grid" x1="680" y1="110" x2="1110" y2="110"/><text class="sm" text-anchor="end" x="672" y="114">1.37</text><polyline class="line" points="680,225.8275484106686 895,240.77822433321154 1110,251.06686152721957"/><circle class="pt" cx="680" cy="225.8275484106686" r="5"/><text class="sm" x="687" y="218.8275484106686">E1</text><circle class="pt" cx="895" cy="240.77822433321154" r="5"/><text class="sm" x="902" y="233.77822433321154">E1</text><circle class="pt" cx="1110" cy="251.06686152721957" r="5"/><text class="sm" x="1117" y="244.06686152721957">E1</text><polyline class="line" points="680,138.69565217391303 895,168.91852393131163 1110,195.92619656558273"/><circle class="pt" cx="680" cy="138.69565217391303" r="5"/><text class="sm" x="687" y="131.69565217391303">E2</text><circle class="pt" cx="895" cy="168.91852393131163" r="5"/><text class="sm" x="902" y="161.91852393131163">E2</text><circle class="pt" cx="1110" cy="195.92619656558273" r="5"/><text class="sm" x="1117" y="188.92619656558273">E2</text><polyline class="line" points="680,259.9086591158202 895,273.7340153452685 1110,282.09353306540004"/><circle class="pt" cx="680" cy="259.9086591158202" r="5"/><text class="sm" x="687" y="252.90865911582023">E3</text><circle class="pt" cx="895" cy="273.7340153452685" r="5"/><text class="sm" x="902" y="266.7340153452685">E3</text><circle class="pt" cx="1110" cy="282.09353306540004" r="5"/><text class="sm" x="1117" y="275.09353306540004">E3</text><polyline class="line" points="680,194.80087687248812 895,212.0021921812203 1110,224.70222871757397"/><circle class="pt" cx="680" cy="194.80087687248812" r="5"/><text class="sm" x="687" y="187.80087687248812">E4</text><circle class="pt" cx="895" cy="212.0021921812203" r="5"/><text class="sm" x="902" y="205.0021921812203">E4</text><circle class="pt" cx="1110" cy="224.70222871757397" r="5"/><text class="sm" x="1117" y="217.70222871757397">E4</text><polyline class="line" points="680,267.4643770551699 895,282.41505297771283 1110,292.22141030325173"/><circle class="pt" cx="680" cy="267.4643770551699" r="5"/><text class="sm" x="687" y="260.4643770551699">E5</text><circle class="pt" cx="895" cy="282.41505297771283" r="5"/><text class="sm" x="902" y="275.41505297771283">E5</text><circle class="pt" cx="1110" cy="292.22141030325173" r="5"/><text class="sm" x="1117" y="285.22141030325173">E5</text><text class="ax" text-anchor="middle" x="680" y="352">15</text><text class="ax" text-anchor="middle" x="895" y="352">30</text><text class="ax" text-anchor="middle" x="1110" y="352">60</text><text class="st" x="380" y="448">Observed throughput CV (%)</text><line class="axis" x1="380" y1="680" x2="810" y2="680"/><line class="axis" x1="380" y1="460" x2="380" y2="680"/><line class="grid" x1="380" y1="680" x2="810" y2="680"/><text class="sm" text-anchor="end" x="372" y="684">0.00</text><line class="grid" x1="380" y1="625" x2="810" y2="625"/><text class="sm" text-anchor="end" x="372" y="629">14.87</text><line class="grid" x1="380" y1="570" x2="810" y2="570"/><text class="sm" text-anchor="end" x="372" y="574">29.73</text><line class="grid" x1="380" y1="515" x2="810" y2="515"/><text class="sm" text-anchor="end" x="372" y="519">44.60</text><line class="grid" x1="380" y1="460" x2="810" y2="460"/><text class="sm" text-anchor="end" x="372" y="464">59.47</text><polyline class="line" points="380,488.695652173913 595,508.04398694079885 810,527.5181043811215"/><circle class="pt" cx="380" cy="488.695652173913" r="5"/><text class="sm" x="387" y="481.695652173913">E1</text><circle class="pt" cx="595" cy="508.04398694079885" r="5"/><text class="sm" x="602" y="501.04398694079885">E1</text><circle class="pt" cx="810" cy="527.5181043811215" r="5"/><text class="sm" x="817" y="520.5181043811215">E1</text><polyline class="line" points="380,489.5058405704614 595,512.5018728670125 810,526.9002894851234"/><circle class="pt" cx="380" cy="489.5058405704614" r="5"/><text class="sm" x="387" y="482.5058405704614">E2</text><circle class="pt" cx="595" cy="512.5018728670125" r="5"/><text class="sm" x="602" y="505.5018728670125">E2</text><circle class="pt" cx="810" cy="526.9002894851234" r="5"/><text class="sm" x="817" y="519.9002894851234">E2</text><polyline class="line" points="380,529.3826475403013 595,543.6626804657658 810,557.2435097065379"/><circle class="pt" cx="380" cy="529.3826475403013" r="5"/><text class="sm" x="387" y="522.3826475403013">E3</text><circle class="pt" cx="595" cy="543.6626804657658" r="5"/><text class="sm" x="602" y="536.6626804657658">E3</text><circle class="pt" cx="810" cy="557.2435097065379" r="5"/><text class="sm" x="817" y="550.2435097065379">E3</text><polyline class="line" points="380,514.7770594600594 595,533.0081481275954 810,549.8741248393034"/><circle class="pt" cx="380" cy="514.7770594600594" r="5"/><text class="sm" x="387" y="507.7770594600594">E4</text><circle class="pt" cx="595" cy="533.0081481275954" r="5"/><text class="sm" x="602" y="526.0081481275954">E4</text><circle class="pt" cx="810" cy="549.8741248393034" r="5"/><text class="sm" x="817" y="542.8741248393034">E4</text><polyline class="line" points="380,517.3260083423509 595,539.0753123757202 810,553.8584759949317"/><circle class="pt" cx="380" cy="517.3260083423509" r="5"/><text class="sm" x="387" y="510.32600834235086">E5</text><circle class="pt" cx="595" cy="539.0753123757202" r="5"/><text class="sm" x="602" y="532.0753123757202">E5</text><circle class="pt" cx="810" cy="553.8584759949317" r="5"/><text class="sm" x="817" y="546.8584759949317">E5</text><text class="ax" text-anchor="middle" x="380" y="702">15</text><text class="ax" text-anchor="middle" x="595" y="702">30</text><text class="ax" text-anchor="middle" x="810" y="702">60</text></svg>